<svg width="50" height="50" viewBox="0 0 50 50" fill="none" xmlns="http://www.w3.org/2000/svg">
<g filter="url(#filter0_d)">
<path d="M23 3C11.9716 3 3 11.9716 3 23C3 34.0284 11.9716 43 23 43C34.0284 43 43 34.0284 43 23C43 11.9716 34.0284 3 23 3ZM31.75 24.6666H24.6666V31.75C24.6666 32.6701 23.9201 33.4166 23 33.4166C22.0799 33.4166 21.3334 32.6701 21.3334 31.75V24.6666H14.25C13.3299 24.6666 12.5834 23.9201 12.5834 23C12.5834 22.0799 13.3299 21.3334 14.25 21.3334H21.3334V14.25C21.3334 13.3299 22.0799 12.5834 23 12.5834C23.9201 12.5834 24.6666 13.3299 24.6666 14.25V21.3334H31.75C32.6701 21.3334 33.4166 22.0799 33.4166 23C33.4166 23.9201 32.6701 24.6666 31.75 24.6666V24.6666Z" fill="white"/>
</g>
<defs>
<filter id="filter0_d" x="0" y="0" width="50" height="50" filterUnits="userSpaceOnUse" color-interpolation-filters="sRGB">
<feFlood flood-opacity="0" result="BackgroundImageFix"/>
<feColorMatrix in="SourceAlpha" type="matrix" values="0 0 0 0 0 0 0 0 0 0 0 0 0 0 0 0 0 0 127 0"/>
<feOffset dx="2" dy="2"/>
<feGaussianBlur stdDeviation="2.5"/>
<feColorMatrix type="matrix" values="0 0 0 0 0 0 0 0 0 0 0 0 0 0 0 0 0 0 0.5 0"/>
<feBlend mode="normal" in2="BackgroundImageFix" result="effect1_dropShadow"/>
<feBlend mode="normal" in="SourceGraphic" in2="effect1_dropShadow" result="shape"/>
</filter>
</defs>
</svg>
