<svg width="512" height="512" viewBox="0 0 512 512" fill="none" xmlns="http://www.w3.org/2000/svg">
<g clip-path="url(#clip0)">
<path d="M20 276L443.558 276L373.394 345.824C365.565 353.616 365.535 366.279 373.327 374.108C381.119 381.938 393.783 381.967 401.612 374.176L506.116 270.176C506.123 270.17 506.128 270.163 506.134 270.157C513.943 262.365 513.968 249.661 506.136 241.843C506.129 241.837 506.124 241.83 506.118 241.824L401.614 137.824C393.786 130.034 381.122 130.061 373.329 137.892C365.537 145.721 365.567 158.384 373.396 166.176L443.558 236L20 236C8.954 236 0 244.954 0 256C0 267.046 8.954 276 20 276Z" fill="white"/>
</g>
<defs>
<clipPath id="clip0">
<rect width="512" height="512" fill="white" transform="translate(512 512) rotate(-180)"/>
</clipPath>
</defs>
</svg>
