<svg width="80" height="80" viewBox="0 0 80 80" fill="none" xmlns="http://www.w3.org/2000/svg">
<g clip-path="url(#clip0)">
<path d="M40 1.66669C17.9 1.66669 0 19.2667 0 40.9734C0 58.3434 11.46 73.0733 27.35 78.2667C29.35 78.6367 30.0833 77.42 30.0833 76.3767C30.0833 75.4434 30.05 72.97 30.0333 69.6934C18.9067 72.0634 16.56 64.42 16.56 64.42C14.74 59.8834 12.11 58.67 12.11 58.67C8.48667 56.2334 12.39 56.2834 12.39 56.2834C16.4067 56.5567 18.5167 60.3334 18.5167 60.3334C22.0833 66.3434 27.88 64.6067 30.1667 63.6034C30.5267 61.06 31.5567 59.33 32.7 58.3467C23.8167 57.3633 14.48 53.9834 14.48 38.9234C14.48 34.6334 16.03 31.1267 18.5967 28.3767C18.1467 27.3834 16.7967 23.3867 18.9467 17.9734C18.9467 17.9734 22.2967 16.92 29.9467 22.0034C33.1467 21.13 36.5467 20.6967 39.9467 20.6767C43.3467 20.6967 46.7467 21.13 49.9467 22.0034C57.5467 16.92 60.8967 17.9734 60.8967 17.9734C63.0467 23.3867 61.6967 27.3834 61.2967 28.3767C63.8467 31.1267 65.3967 34.6334 65.3967 38.9234C65.3967 54.0234 56.0467 57.3467 47.1467 58.3134C48.5467 59.4934 49.8467 61.9034 49.8467 65.5867C49.8467 70.8467 49.7967 75.0734 49.7967 76.35C49.7967 77.38 50.4967 78.61 52.5467 78.2167C68.55 73.0567 80 58.3167 80 40.9734C80 19.2667 62.09 1.66669 40 1.66669Z" fill="#212121"/>
</g>
<defs>
<clipPath id="clip0">
<rect width="80" height="80" fill="white"/>
</clipPath>
</defs>
</svg>
