<svg width="80" height="80" viewBox="0 0 80 80" fill="none" xmlns="http://www.w3.org/2000/svg">
<path d="M80 11.6667V25H0V11.6667C0 5.22328 5.22328 0 11.6667 0H68.3334C74.7767 0 80 5.22328 80 11.6667Z" fill="#795548"/>
<path d="M80 25V68.3333C80 74.7767 74.7767 80 68.3333 80H11.6667C5.22328 80 0 74.7767 0 68.3333V25H80Z" fill="#BDBDBD"/>
<path d="M58.3333 6.66675H68.3333C69.2538 6.66675 70 7.413 70 8.33347V18.3335C70 19.2539 69.2538 20.0002 68.3333 20.0002H58.3333C57.4128 20.0002 56.6666 19.2539 56.6666 18.3335V8.33347C56.6667 7.41284 57.4128 6.66675 58.3333 6.66675Z" fill="#37474F"/>
<path d="M8.33328 16.6667C7.41281 16.6667 6.66656 15.9205 6.66656 15V3.33328C6.66656 2.41281 7.41281 1.66656 8.33328 1.66656C9.25375 1.66656 10 2.41281 10 3.33328V15C10 15.9205 9.25375 16.6667 8.33328 16.6667Z" fill="#F44336"/>
<path d="M15 16.6667C14.0795 16.6667 13.3333 15.9205 13.3333 15V1.66672C13.3333 0.74625 14.0795 0 15 0C15.9205 0 16.6667 0.74625 16.6667 1.66672V15C16.6667 15.9205 15.9205 16.6667 15 16.6667Z" fill="#FFC107"/>
<path d="M21.6667 16.6667C20.7463 16.6667 20 15.9205 20 15V1.66672C20 0.74625 20.7463 0 21.6667 0C22.5872 0 23.3334 0.74625 23.3334 1.66672V15C23.3333 15.9205 22.5872 16.6667 21.6667 16.6667Z" fill="#4CAF50"/>
<path d="M40 58.3333C50.1252 58.3333 58.3333 50.1252 58.3333 40C58.3333 29.8748 50.1252 21.6667 40 21.6667C29.8748 21.6667 21.6667 29.8748 21.6667 40C21.6667 50.1252 29.8748 58.3333 40 58.3333Z" fill="#455A64"/>
<path d="M40 60C28.9544 60 20 51.0456 20 40C20 28.9544 28.9544 20 40 20C51.0456 20 60 28.9544 60 40C59.9872 51.0403 51.0403 59.9872 40 60ZM40 23.3333C30.7953 23.3333 23.3333 30.7952 23.3333 40C23.3333 49.2048 30.7953 56.6667 40 56.6667C49.2047 56.6667 56.6667 49.2047 56.6667 40C56.6556 30.7998 49.2002 23.3444 40 23.3333Z" fill="#8D6E63"/>
<path d="M40 50C45.5228 50 50 45.5228 50 40C50 34.4772 45.5228 30 40 30C34.4772 30 30 34.4772 30 40C30 45.5228 34.4772 50 40 50Z" fill="#37474F"/>
</svg>
