<svg width="80" height="80" viewBox="0 0 80 80" fill="none" xmlns="http://www.w3.org/2000/svg">
<path d="M72.7634 0H7.23665C3.24 0 0 3.24 0 7.23665V72.7631C0 76.76 3.24 80 7.23665 80H72.7631C76.76 80 80 76.76 80 72.7631V7.23665C80 3.24 76.76 0 72.7634 0ZM24.7554 69.0773C24.7554 70.2404 23.8126 71.1832 22.6494 71.1832H13.6848C12.5217 71.1832 11.5788 70.2404 11.5788 69.0773V31.498C11.5788 30.3349 12.5217 29.392 13.6848 29.392H22.6494C23.8126 29.392 24.7554 30.3349 24.7554 31.498V69.0773ZM18.1671 25.8496C13.4637 25.8496 9.65068 22.0366 9.65068 17.3332C9.65068 12.6297 13.4637 8.81675 18.1671 8.81675C22.8706 8.81675 26.6836 12.6297 26.6836 17.3332C26.6836 22.0366 22.8708 25.8496 18.1671 25.8496ZM71.6042 69.2469C71.6042 70.3162 70.7372 71.1832 69.6679 71.1832H60.0482C58.9788 71.1832 58.1118 70.3162 58.1118 69.2469V51.6201C58.1118 48.9906 58.8831 40.0974 51.24 40.0974C45.3114 40.0974 44.1089 46.1845 43.8674 48.9162V69.2469C43.8674 70.3162 43.0006 71.1832 41.9311 71.1832H32.6272C31.5579 71.1832 30.6909 70.3162 30.6909 69.2469V31.3284C30.6909 30.2591 31.5579 29.392 32.6272 29.392H41.9311C43.0004 29.392 43.8674 30.2591 43.8674 31.3284V34.6069C46.0658 31.3079 49.3328 28.7615 56.2888 28.7615C71.6924 28.7615 71.6042 43.1522 71.6042 51.0593V69.2469Z" fill="#0077B7"/>
</svg>
